<?xml version="1.0" encoding="UTF-8"?><svg xmlns="http://www.w3.org/2000/svg" xmlns:xlink="http://www.w3.org/1999/xlink" fill-opacity="1" color-rendering="auto" color-interpolation="auto" text-rendering="auto" stroke="black" stroke-linecap="square" width="451" stroke-miterlimit="10" shape-rendering="auto" stroke-opacity="1" fill="black" stroke-dasharray="none" font-weight="normal" stroke-width="1" height="350" font-family="'Dialog'" font-style="normal" stroke-linejoin="miter" font-size="12px" stroke-dashoffset="0" image-rendering="auto">
  <!--Generated by ySVG 2.5-->
  <defs id="genericDefs"/>
  <g>
    <defs id="defs1">
      <clipPath clipPathUnits="userSpaceOnUse" id="clipPath1">
        <path d="M0 0 L451 0 L451 350 L0 350 L0 0 Z"/>
      </clipPath>
      <clipPath clipPathUnits="userSpaceOnUse" id="clipPath2">
        <path d="M409 334 L860 334 L860 684 L409 684 L409 334 Z"/>
      </clipPath>
    </defs>
    <g fill="white" text-rendering="geometricPrecision" shape-rendering="geometricPrecision" transform="translate(-409,-334)" stroke="white">
      <rect x="409" width="451" height="350" y="334" clip-path="url(#clipPath2)" stroke="none"/>
    </g>
    <g fill="fuchsia" text-rendering="geometricPrecision" shape-rendering="geometricPrecision" transform="matrix(1,0,0,1,-409,-334)" stroke="fuchsia">
      <rect x="558.888" y="585" clip-path="url(#clipPath2)" width="68.4" rx="4" ry="4" height="62.256" stroke="none"/>
    </g>
    <g text-rendering="geometricPrecision" stroke-miterlimit="1.45" shape-rendering="geometricPrecision" transform="matrix(1,0,0,1,-409,-334)" stroke-linecap="butt">
      <rect x="558.888" y="585" clip-path="url(#clipPath2)" fill="none" width="68.4" rx="4" ry="4" height="62.256"/>
      <text x="565.0714" xml:space="preserve" y="620.8419" clip-path="url(#clipPath2)" font-family="sans-serif" stroke="none">Input color</text>
    </g>
    <g fill="rgb(255,204,153)" text-rendering="geometricPrecision" shape-rendering="geometricPrecision" transform="matrix(1,0,0,1,-409,-334)" stroke="rgb(255,204,153)">
      <rect x="775.8" y="459.352" clip-path="url(#clipPath2)" width="68.4" rx="4" ry="4" height="62.256" stroke="none"/>
    </g>
    <g text-rendering="geometricPrecision" stroke-miterlimit="1.45" shape-rendering="geometricPrecision" transform="matrix(1,0,0,1,-409,-334)" stroke-linecap="butt">
      <rect x="775.8" y="459.352" clip-path="url(#clipPath2)" fill="none" width="68.4" rx="4" ry="4" height="62.256"/>
      <text x="794.9883" xml:space="preserve" y="480.4927" clip-path="url(#clipPath2)" font-family="sans-serif" stroke="none">Input </text>
      <text x="790.3184" xml:space="preserve" y="495.1939" clip-path="url(#clipPath2)" font-family="sans-serif" stroke="none">palette </text>
      <text x="796.9951" xml:space="preserve" y="509.8951" clip-path="url(#clipPath2)" font-family="sans-serif" stroke="none">color</text>
    </g>
    <g fill="rgb(153,204,255)" text-rendering="geometricPrecision" shape-rendering="geometricPrecision" transform="matrix(1,0,0,1,-409,-334)" stroke="rgb(153,204,255)">
      <rect x="424.296" y="605.544" clip-path="url(#clipPath2)" width="68.4" rx="4" ry="4" height="62.256" stroke="none"/>
    </g>
    <g text-rendering="geometricPrecision" stroke-miterlimit="1.45" shape-rendering="geometricPrecision" transform="matrix(1,0,0,1,-409,-334)" stroke-linecap="butt">
      <rect x="424.296" y="605.544" clip-path="url(#clipPath2)" fill="none" width="68.4" rx="4" ry="4" height="62.256"/>
      <text x="440.8241" xml:space="preserve" y="619.3341" clip-path="url(#clipPath2)" font-family="sans-serif" stroke="none">Wrong</text>
      <text x="440.1474" xml:space="preserve" y="634.0353" clip-path="url(#clipPath2)" font-family="sans-serif" stroke="none">output </text>
      <text x="438.8144" xml:space="preserve" y="648.7365" clip-path="url(#clipPath2)" font-family="sans-serif" stroke="none">palette </text>
      <text x="445.4911" xml:space="preserve" y="663.4376" clip-path="url(#clipPath2)" font-family="sans-serif" stroke="none">color</text>
    </g>
    <g fill="rgb(255,153,204)" text-rendering="geometricPrecision" shape-rendering="geometricPrecision" transform="matrix(1,0,0,1,-409,-334)" stroke="rgb(255,153,204)">
      <rect x="715.8" y="349.616" clip-path="url(#clipPath2)" width="68.4" rx="4" ry="4" height="62.256" stroke="none"/>
    </g>
    <g text-rendering="geometricPrecision" stroke-miterlimit="1.45" shape-rendering="geometricPrecision" transform="matrix(1,0,0,1,-409,-334)" stroke-linecap="butt">
      <rect x="715.8" y="349.616" clip-path="url(#clipPath2)" fill="none" width="68.4" rx="4" ry="4" height="62.256"/>
      <text x="730.3301" xml:space="preserve" y="363.4061" clip-path="url(#clipPath2)" font-family="sans-serif" stroke="none">Correct</text>
      <text x="731.6514" xml:space="preserve" y="378.1073" clip-path="url(#clipPath2)" font-family="sans-serif" stroke="none">output </text>
      <text x="730.3184" xml:space="preserve" y="392.8084" clip-path="url(#clipPath2)" font-family="sans-serif" stroke="none">palette </text>
      <text x="736.9951" xml:space="preserve" y="407.5096" clip-path="url(#clipPath2)" font-family="sans-serif" stroke="none">color</text>
      <path fill="none" stroke-dasharray="6,2" d="M627.2718 596.3268 L762.8257 517.8061" clip-path="url(#clipPath2)"/>
      <path fill="white" stroke-dasharray="6,2" d="M775.8054 510.2875 L758.953 513.1155 L764.9678 523.4992 Z" clip-path="url(#clipPath2)" stroke="none"/>
      <path fill="none" d="M775.8054 510.2875 L758.953 513.1155 L764.9678 523.4992 Z" clip-path="url(#clipPath2)"/>
      <text x="685.344" xml:space="preserve" y="547.3212" clip-path="url(#clipPath2)" font-family="sans-serif" stroke="none">1b</text>
      <path fill="none" stroke-dasharray="6,2" d="M558.8814 621.3492 L507.4886 629.1938" clip-path="url(#clipPath2)"/>
      <path fill="white" stroke-dasharray="6,2" d="M492.6604 631.4572 L509.3825 634.9742 L507.5718 623.1116 Z" clip-path="url(#clipPath2)" stroke="none"/>
      <path fill="none" d="M492.6604 631.4572 L509.3825 634.9742 L507.5718 623.1116 Z" clip-path="url(#clipPath2)"/>
      <text x="523.4875" xml:space="preserve" y="618.289" clip-path="url(#clipPath2)" font-family="sans-serif" stroke="none">1a</text>
      <path fill="none" stroke-dasharray="6,2" d="M792.9932 459.3756 L774.2212 425.043" clip-path="url(#clipPath2)"/>
      <path fill="white" stroke-dasharray="6,2" d="M767.0251 411.8818 L769.4365 428.7988 L779.9654 423.042 Z" clip-path="url(#clipPath2)" stroke="none"/>
      <path fill="none" d="M767.0251 411.8818 L769.4365 428.7988 L779.9654 423.042 Z" clip-path="url(#clipPath2)"/>
      <text x="784.1226" xml:space="preserve" y="440.8757" clip-path="url(#clipPath2)" font-family="sans-serif" stroke="none">2b</text>
    </g>
  </g>
</svg>
